<?xml version="1.0" encoding="iso-8859-1"?>
<!-- Generator: Adobe Illustrator 19.0.0, SVG Export Plug-In . SVG Version: 6.00 Build 0)  -->
<svg version="1.1" id="Capa_1" xmlns="http://www.w3.org/2000/svg" xmlns:xlink="http://www.w3.org/1999/xlink" x="0px" y="0px"
	 viewBox="0 0 511.976 511.976" style="enable-background:new 0 0 511.976 511.976;" xml:space="preserve">
<path style="fill:#629FD6;" d="M390.808,111.008h-6.336c-6.296-26.496-30.184-46.352-58.744-46.352
	c-6.944,0-13.968,1.528-19.784,3.472C291.976,28.472,254.144,0,209.528,0c-56.48,0-102.264,45.552-102.264,101.752
	c0,3.544,0.192,7.032,0.536,10.48c-37.12,6.392-65.608,38.704-65.608,77.392c0,43.24,35.552,78.632,79.008,78.632h269.576
	c43.456,0,79.008-35.376,79.008-78.632C469.816,146.4,434.264,111.008,390.808,111.008z"/>
<g>
	<rect x="190.736" y="309.768" style="fill:#B5C0D6;" width="8" height="68.696"/>
	<rect x="175.104" y="347.2" style="fill:#B5C0D6;" width="39.264" height="8"/>
	<polygon style="fill:#B5C0D6;" points="194.736,331.648 174.864,319.288 179.088,312.496 194.736,322.224 210.392,312.496 
		214.608,319.288 	"/>
	<rect x="190.112" y="443.28" style="fill:#B5C0D6;" width="8" height="68.696"/>
	<rect x="174.488" y="466.56" style="fill:#B5C0D6;" width="39.256" height="8"/>
	<polygon style="fill:#B5C0D6;" points="209.768,509.272 194.112,499.536 178.464,509.272 174.24,502.48 194.112,490.12 
		213.984,502.48 	"/>
	
		<rect x="143.45" y="329.093" transform="matrix(-0.707 0.7072 -0.7072 -0.707 508.7263 516.1178)" style="fill:#B5C0D6;" width="8" height="68.695"/>
	
		<rect x="132.834" y="364.475" transform="matrix(-0.7071 0.7071 -0.7071 -0.7071 520.8193 521.2191)" style="fill:#B5C0D6;" width="39.256" height="8"/>
	<polygon style="fill:#B5C0D6;" points="115.824,359.952 114.008,352.16 131.96,347.976 136.144,330.024 143.936,331.84 
		138.616,354.632 	"/>
	
		<rect x="237.411" y="423.978" transform="matrix(-0.7071 0.7071 -0.7071 -0.7071 736.196 611.7006)" style="fill:#B5C0D6;" width="8" height="68.687"/>
	
		<rect x="216.768" y="449.253" transform="matrix(-0.7071 0.7071 -0.7071 -0.7071 724.0574 606.5921)" style="fill:#B5C0D6;" width="39.264" height="8"/>
	<polygon style="fill:#B5C0D6;" points="252.712,491.736 244.912,489.92 250.232,467.136 273.024,461.816 274.832,469.608 
		256.888,473.792 	"/>
	
		<rect x="112.613" y="453.882" transform="matrix(-0.7071 0.7071 -0.7071 -0.7071 574.6488 677.7368)" style="fill:#B5C0D6;" width="68.695" height="8"/>
	
		<rect x="148.009" y="433.218" transform="matrix(-0.7071 0.7071 -0.7071 -0.7071 579.7089 665.5768)" style="fill:#B5C0D6;" width="8" height="39.264"/>
	<polygon style="fill:#B5C0D6;" points="135.696,491.296 131.512,473.352 113.568,469.176 115.384,461.376 138.168,466.696 
		143.488,489.488 	"/>
	
		<rect x="207.508" y="359.891" transform="matrix(-0.7071 0.7071 -0.7071 -0.7071 670.1831 450.1824)" style="fill:#B5C0D6;" width="68.695" height="8"/>
	
		<rect x="232.844" y="349.258" transform="matrix(-0.7072 0.707 -0.707 -0.7072 665.1494 462.3213)" style="fill:#B5C0D6;" width="8" height="39.264"/>
	<polygon style="fill:#B5C0D6;" points="273.472,360.392 250.672,355.072 245.36,332.28 253.16,330.472 257.328,348.416 
		275.28,352.592 	"/>
	<rect x="93.304" y="406.568" style="fill:#B5C0D6;" width="68.696" height="8"/>
	<rect x="130.776" y="390.936" style="fill:#B5C0D6;" width="8" height="39.264"/>
	<polygon style="fill:#B5C0D6;" points="102.824,430.448 96.032,426.224 105.768,410.568 96.032,394.92 102.824,390.704 
		115.184,410.568 	"/>
	<rect x="226.848" y="407.192" style="fill:#B5C0D6;" width="68.688" height="8"/>
	<rect x="250.064" y="391.56" style="fill:#B5C0D6;" width="8" height="39.264"/>
	<polygon style="fill:#B5C0D6;" points="286.016,431.064 273.656,411.192 286.016,391.32 292.816,395.536 283.08,411.192 
		292.816,426.848 	"/>
</g>
<polygon style="fill:#629FD6;" points="162.208,392.28 162.208,429.488 194.424,448.088 226.64,429.488 226.64,392.28 
	194.424,373.68 "/>
<g>
	<rect x="379.504" y="301.2" style="fill:#B5C0D6;" width="8" height="44.84"/>
	<rect x="370.624" y="324.272" style="fill:#B5C0D6;" width="25.632" height="8"/>
	<polygon style="fill:#B5C0D6;" points="383.48,317.128 369.768,308.6 373.984,301.808 383.48,307.704 392.96,301.808 
		397.176,308.6 	"/>
	<rect x="379.104" y="388.384" style="fill:#B5C0D6;" width="8" height="44.84"/>
	<rect x="370.224" y="402.16" style="fill:#B5C0D6;" width="25.632" height="8"/>
	<polygon style="fill:#B5C0D6;" points="373.576,432.624 369.36,425.832 383.072,417.304 396.776,425.832 392.552,432.624 
		383.072,426.728 	"/>
	
		<rect x="348.597" y="313.835" transform="matrix(-0.7071 0.7071 -0.7071 -0.7071 839.6925 324.7063)" style="fill:#B5C0D6;" width="8" height="44.848"/>
	
		<rect x="343.054" y="335.534" transform="matrix(-0.7071 0.7071 -0.7071 -0.7071 847.595 327.9817)" style="fill:#B5C0D6;" width="25.632" height="8"/>
	<polygon style="fill:#B5C0D6;" points="332.272,335.312 330.464,327.52 341.336,324.984 343.864,314.12 351.664,315.928 
		347.992,331.656 	"/>
	
		<rect x="409.954" y="375.747" transform="matrix(-0.7071 0.7071 -0.7071 -0.7071 988.2123 387.0107)" style="fill:#B5C0D6;" width="8" height="44.848"/>
	
		<rect x="397.841" y="390.889" transform="matrix(-0.7071 0.7071 -0.7071 -0.7071 980.2646 383.7401)" style="fill:#B5C0D6;" width="25.632" height="8"/>
	<polygon style="fill:#B5C0D6;" points="422.672,420.312 414.872,418.504 418.544,402.784 434.264,399.112 436.08,406.904 
		425.2,409.44 	"/>
	
		<rect x="329.914" y="393.904" transform="matrix(-0.7071 0.7071 -0.7071 -0.7071 882.8259 430.1304)" style="fill:#B5C0D6;" width="44.832" height="8"/>
	
		<rect x="351.584" y="381.787" transform="matrix(-0.7071 0.7071 -0.7071 -0.7071 886.0466 422.194)" style="fill:#B5C0D6;" width="8" height="25.632"/>
	<polygon style="fill:#B5C0D6;" points="343.576,420.024 341.048,409.152 330.168,406.616 331.984,398.824 347.704,402.496 
		351.376,418.208 	"/>
	
		<rect x="391.813" y="332.532" transform="matrix(-0.7071 0.7071 -0.7071 -0.7071 945.111 281.5866)" style="fill:#B5C0D6;" width="44.848" height="8"/>
	
		<rect x="406.949" y="327.006" transform="matrix(-0.7071 0.7071 -0.7071 -0.7071 941.8243 289.5277)" style="fill:#B5C0D6;" width="8" height="25.632"/>
	<polygon style="fill:#B5C0D6;" points="434.552,335.6 418.832,331.936 415.16,316.208 422.96,314.4 425.488,325.28 
		436.368,327.808 	"/>
	<rect x="317.256" y="363.04" style="fill:#B5C0D6;" width="44.84" height="8"/>
	<rect x="340.328" y="354.16" style="fill:#B5C0D6;" width="8" height="25.632"/>
	<polygon style="fill:#B5C0D6;" points="324.656,380.712 317.856,376.496 323.76,367.008 317.856,357.52 324.656,353.304 
		333.176,367.008 	"/>
	<rect x="404.44" y="363.44" style="fill:#B5C0D6;" width="44.84" height="8"/>
	<rect x="418.224" y="354.64" style="fill:#B5C0D6;" width="8" height="25.632"/>
	<polygon style="fill:#B5C0D6;" points="441.88,381.12 433.36,367.416 441.88,353.712 448.68,357.928 442.784,367.416 
		448.68,376.896 	"/>
</g>
<polygon style="fill:#629FD6;" points="362.24,355.072 362.24,379.36 383.272,391.496 404.304,379.36 404.304,355.072 
	383.272,342.928 "/>
<g>
</g>
<g>
</g>
<g>
</g>
<g>
</g>
<g>
</g>
<g>
</g>
<g>
</g>
<g>
</g>
<g>
</g>
<g>
</g>
<g>
</g>
<g>
</g>
<g>
</g>
<g>
</g>
<g>
</g>
</svg>
