<svg width="0" height="0">
  <symbol xmlns="http://www.w3.org/2000/svg" viewBox="0 0 476.127 476.127" id="03n">
    <path d="M201.254 78.052c-55.463 13.693-99.559 57.644-112.534 114.336C38.476 200.564 0 244.263 0 296.779c0 58.318 47.445 105.763 105.763 105.763h132.3V73.585a153.408 153.408 0 0 0-36.809 4.467z" fill="#bddbff"></path>
    <path d="M460.67 241.789c-15.77-25.801-42.276-44.359-73.263-49.401-15.739-68.772-77.271-118.804-149.343-118.804v328.958h132.3c58.318 0 105.763-47.445 105.763-105.763 0-20.127-5.657-38.956-15.457-54.99z" fill="#9bc9ff"></path>
  </symbol>
  <symbol xmlns="http://www.w3.org/2000/svg" viewBox="0 0 495 495" id="04d">
    <path d="M478.287 269.323C489.221 254.714 495 237.327 495 219.04c0-40.53-28.86-74.446-67.111-82.278-13.431-51.897-60.56-89.308-115.567-89.308-49.282 0-93.286 30.531-111.068 75.603a153.41 153.41 0 0 1 36.81-4.467c72.072 0 133.604 50.031 149.343 118.804 30.987 5.042 57.493 23.599 73.263 49.401a84.304 84.304 0 0 0 17.617-17.472z"
      fill="#57a4ff"></path>
    <path d="M238.063 118.589c-12.659 0-24.991 1.55-36.81 4.467-55.462 13.693-99.558 57.644-112.533 114.337C38.476 245.568 0 289.267 0 341.783c0 58.318 47.445 105.763 105.763 105.763h132.3V118.589z" fill="#bddbff"></path>
    <path d="M387.407 237.393c-15.739-68.772-77.271-118.804-149.343-118.804v328.958h132.3c58.318 0 105.763-47.445 105.763-105.763 0-20.127-5.657-38.956-15.457-54.99-15.77-25.802-42.276-44.359-73.263-49.401z" fill="#9bc9ff"></path>
  </symbol>
  <symbol xmlns="http://www.w3.org/2000/svg" viewBox="0 0 495 495" id="04n">
    <path d="M478.287 269.323C489.221 254.714 495 237.327 495 219.04c0-40.53-28.86-74.446-67.111-82.278-13.431-51.897-60.56-89.308-115.567-89.308-49.282 0-93.286 30.531-111.068 75.603a153.41 153.41 0 0 1 36.81-4.467c72.072 0 133.604 50.031 149.343 118.804 30.987 5.042 57.493 23.599 73.263 49.401a84.304 84.304 0 0 0 17.617-17.472z"
      fill="#57a4ff"></path>
    <path d="M238.063 118.589c-12.659 0-24.991 1.55-36.81 4.467-55.462 13.693-99.558 57.644-112.533 114.337C38.476 245.568 0 289.267 0 341.783c0 58.318 47.445 105.763 105.763 105.763h132.3V118.589z" fill="#bddbff"></path>
    <path d="M387.407 237.393c-15.739-68.772-77.271-118.804-149.343-118.804v328.958h132.3c58.318 0 105.763-47.445 105.763-105.763 0-20.127-5.657-38.956-15.457-54.99-15.77-25.802-42.276-44.359-73.263-49.401z" fill="#9bc9ff"></path>
  </symbol>
  <symbol xmlns="http://www.w3.org/2000/svg" viewBox="0 0 476.127 476.127" id="09d">
    <path fill="#d1e7f8" d="M85.763 408.668h40v64.77h-40zm20-77.022c-6.837 0-13.521-.66-20-1.905v42.004h40v-40.099h-20zm68.2 0h40v141.792h-40z"></path>
    <path fill="#bddbff" d="M262.164 428.668h40v44.77h-40zm0-97.022h40v60.099h-40zM238.063 2.689c-12.659 0-24.991 1.55-36.81 4.467C145.791 20.849 101.695 64.8 88.72 121.493 38.476 129.668 0 173.367 0 225.883c0 58.318 47.445 105.763 105.763 105.763h132.3V2.689zm132.301 328.957h-20v141.792h40V329.741a105.818 105.818 0 0 1-20 1.905z"></path>
    <path d="M387.407 121.493C371.667 52.72 310.135 2.689 238.063 2.689v328.958h132.3c58.318 0 105.763-47.445 105.763-105.763 0-20.127-5.657-38.956-15.457-54.99-15.769-25.802-42.275-44.359-73.262-49.401z" fill="#9bc9ff"></path>
  </symbol>
  <symbol xmlns="http://www.w3.org/2000/svg" viewBox="0 0 476.127 476.127" id="09n">
    <path fill="#d1e7f8" d="M85.763 408.668h40v64.77h-40zm20-77.022c-6.837 0-13.521-.66-20-1.905v42.004h40v-40.099h-20zm68.2 0h40v141.792h-40z"></path>
    <path fill="#bddbff" d="M262.164 428.668h40v44.77h-40zm0-97.022h40v60.099h-40zM238.063 2.689c-12.659 0-24.991 1.55-36.81 4.467C145.791 20.849 101.695 64.8 88.72 121.493 38.476 129.668 0 173.367 0 225.883c0 58.318 47.445 105.763 105.763 105.763h132.3V2.689zm132.301 328.957h-20v141.792h40V329.741a105.818 105.818 0 0 1-20 1.905z"></path>
    <path d="M387.407 121.493C371.667 52.72 310.135 2.689 238.063 2.689v328.958h132.3c58.318 0 105.763-47.445 105.763-105.763 0-20.127-5.657-38.956-15.457-54.99-15.769-25.802-42.275-44.359-73.262-49.401z" fill="#9bc9ff"></path>
  </symbol>
  <symbol xmlns="http://www.w3.org/2000/svg" viewBox="0 0 490.999 490.999" id="10d">
    <path fill="#d1e7f8" d="M88.845 426.23h40V491h-40zm20.001-77.022c-6.837 0-13.521-.66-20-1.905v42.004h40v-40.099h-20zm68.2 0h40v141.791h-40z"></path>
    <path fill="#bddbff" d="M265.247 446.23h40V491h-40zm0-97.022h40v60.099h-40zm108.199 0h-20v141.791h40V347.303a105.884 105.884 0 0 1-20 1.905zM241.146 20.25c-12.659 0-24.991 1.55-36.81 4.467-55.463 13.693-99.559 57.644-112.534 114.336-50.244 8.175-88.72 51.875-88.72 104.391 0 58.318 47.445 105.763 105.763 105.763h132.3V20.25z"></path>
    <path d="M390.489 139.054C374.75 70.282 313.218 20.25 241.146 20.25v328.958h132.3c58.318 0 105.763-47.445 105.763-105.763 0-20.127-5.657-38.956-15.457-54.99-15.769-25.801-42.275-44.359-73.263-49.401z" fill="#9bc9ff"></path>
    <path d="M459.575 102.872A96.088 96.088 0 0 0 446.002 70.2l20.069-20.069-28.285-28.284-20.069 20.069a96.08 96.08 0 0 0-32.672-13.573V0h-40v28.368A97.067 97.067 0 0 0 315.9 39.696c36.456 20.387 63.9 55.294 74.122 97.413l2.172 2.242c22.251 3.998 42.107 14.976 57.214 30.581a96.73 96.73 0 0 0 10.14-27.061h28.368v-40h-28.341z"
      fill="#ffcd00"></path>
  </symbol>
  <symbol xmlns="http://www.w3.org/2000/svg" viewBox="0 0 492.868 492.868" id="10n">
    <path fill="#2488ff" d="M270.518 448.099h40v44.769h-40z"></path>
    <path d="M371.329 86.509a152.172 152.172 0 0 1 24.449 54.414c20.953 3.409 39.856 13.001 54.779 26.829a94.814 94.814 0 0 0 26.69-36.402c20.046-48.396-3.019-104.078-51.414-124.123A94.977 94.977 0 0 0 377.054.821l-34.26 4.546 21.012 27.44c11.739 15.331 14.584 35.827 7.523 53.702z"
      fill="#ffde55"></path>
    <path d="M246.434 22.119c-12.659 0-24.991 1.55-36.81 4.467-55.463 13.693-99.559 57.644-112.533 114.336-50.244 8.175-88.72 51.875-88.72 104.391 0 58.318 47.445 105.763 105.763 105.763h132.3V22.119z" fill="#2488ff"></path>
    <path d="M395.777 140.922C380.038 72.15 318.506 22.119 246.434 22.119v328.958h132.3c58.318 0 105.763-47.445 105.763-105.763 0-20.127-5.657-38.956-15.457-54.99-15.769-25.802-42.276-44.36-73.263-49.402z" fill="#006df0"></path>
    <path fill="#57a4ff" d="M94.118 428.099h40v64.769h-40zm20.016-77.023c-6.842 0-13.532-.661-20.016-1.908v42.008h40v-40.1h-19.984zm68.184 0h40v141.792h-40z"></path>
    <path fill="#2488ff" d="M270.518 351.076h40v60.1h-40zm108.216 0h-20.016v141.792h40V349.174a105.896 105.896 0 0 1-19.984 1.902z"></path>
  </symbol>
  <symbol xmlns="http://www.w3.org/2000/svg" viewBox="0 0 512.008 512.008" id="11d">
    <path d="M417.44 163.98h-7.584c-7.544-31.728-36.136-55.504-70.336-55.504-8.312 0-16.728 1.832-23.696 4.152-16.728-47.472-62.032-81.568-115.448-81.568-67.632 0-122.456 54.544-122.456 121.84 0 4.24.232 8.416.64 12.552C34.112 173.1 0 211.796 0 258.116c0 51.776 42.576 94.16 94.608 94.16H417.4c52.032 0 94.608-42.36 94.608-94.16.032-51.76-42.536-94.136-94.568-94.136z"
      fill="#629fd6"></path>
    <path fill="#ffd07d" d="M291.168 155.804L109.08 311.412h95.672L109.08 480.948 316.088 273.94H231.08z"></path>
  </symbol>
  <symbol xmlns="http://www.w3.org/2000/svg" viewBox="0 0 512.008 512.008" id="11n">
    <path d="M417.44 163.98h-7.584c-7.544-31.728-36.136-55.504-70.336-55.504-8.312 0-16.728 1.832-23.696 4.152-16.728-47.472-62.032-81.568-115.448-81.568-67.632 0-122.456 54.544-122.456 121.84 0 4.24.232 8.416.64 12.552C34.112 173.1 0 211.796 0 258.116c0 51.776 42.576 94.16 94.608 94.16H417.4c52.032 0 94.608-42.36 94.608-94.16.032-51.76-42.536-94.136-94.568-94.136z"
      fill="#629fd6"></path>
    <path fill="#ffd07d" d="M291.168 155.804L109.08 311.412h95.672L109.08 480.948 316.088 273.94H231.08z"></path>
  </symbol>
  <symbol xmlns="http://www.w3.org/2000/svg" viewBox="0 0 511.976 511.976" id="13d">
    <path d="M390.808 111.008h-6.336c-6.296-26.496-30.184-46.352-58.744-46.352-6.944 0-13.968 1.528-19.784 3.472C291.976 28.472 254.144 0 209.528 0c-56.48 0-102.264 45.552-102.264 101.752 0 3.544.192 7.032.536 10.48-37.12 6.392-65.608 38.704-65.608 77.392 0 43.24 35.552 78.632 79.008 78.632h269.576c43.456 0 79.008-35.376 79.008-78.632.032-43.224-35.52-78.616-78.976-78.616z"
      fill="#629fd6"></path>
    <g fill="#b5c0d6">
      <path d="M190.736 309.768h8v68.696h-8z"></path>
      <path d="M175.104 347.2h39.264v8h-39.264zm19.632-15.552l-19.872-12.36 4.224-6.792 15.648 9.728 15.656-9.728 4.216 6.792zm-4.624 111.632h8v68.696h-8z"></path>
      <path d="M174.488 466.56h39.256v8h-39.256zm35.28 42.712l-15.656-9.736-15.648 9.736-4.224-6.792 19.872-12.36 19.872 12.36zm-35.195-124.375l-5.656 5.657-48.582-48.567 5.656-5.657z"></path>
      <path d="M169.172 357.426l-27.758 27.758-5.657-5.657 27.758-27.758zm-53.348 2.526l-1.816-7.792 17.952-4.184 4.184-17.952 7.792 1.816-5.32 22.792zM268.528 479.78l-5.657 5.656-48.569-48.569 5.657-5.657z"></path>
      <path d="M253.114 442.202l-27.764 27.764-5.656-5.657 27.763-27.764zm-.402 49.534l-7.8-1.816 5.32-22.784 22.792-5.32 1.808 7.792-17.944 4.184zm-78.632-55.311L125.506 485l-5.657-5.657 48.574-48.574z"></path>
      <path d="M168.723 463.906l-5.657 5.656-27.763-27.763 5.657-5.657zm-33.027 27.39l-4.184-17.944-17.944-4.176 1.816-7.8 22.784 5.32 5.32 22.792zm133.279-148.864l-48.574 48.575-5.657-5.657 48.574-48.574z"></path>
      <path d="M253.557 379.947l-5.658 5.656-27.76-27.768 5.658-5.656zm19.915-19.555l-22.8-5.32-5.312-22.792 7.8-1.808 4.168 17.944 17.952 4.176zM93.304 406.568H162v8H93.304z"></path>
      <path d="M130.776 390.936h8V430.2h-8zm-27.952 39.512l-6.792-4.224 9.736-15.656-9.736-15.648 6.792-4.216 12.36 19.864zm124.024-23.256h68.688v8h-68.688z"></path>
      <path d="M250.064 391.56h8v39.264h-8zm35.952 39.504l-12.36-19.872 12.36-19.872 6.8 4.216-9.736 15.656 9.736 15.656z"></path>
    </g>
    <path fill="#629fd6" d="M162.208 392.28v37.208l32.216 18.6 32.216-18.6V392.28l-32.216-18.6z"></path>
    <g fill="#b5c0d6">
      <path d="M379.504 301.2h8v44.84h-8z"></path>
      <path d="M370.624 324.272h25.632v8h-25.632zm12.856-7.144l-13.712-8.528 4.216-6.792 9.496 5.896 9.48-5.896 4.216 6.792zm-4.376 71.256h8v44.84h-8z"></path>
      <path d="M370.224 402.16h25.632v8h-25.632zm3.352 30.464l-4.216-6.792 13.712-8.528 13.704 8.528-4.224 6.792-9.48-5.896zm-2.289-83.337l-5.657 5.656-31.712-31.712 5.657-5.657z"></path>
      <path d="M367.765 333.3l-18.124 18.123-5.657-5.656 18.125-18.125zm-35.493 2.012l-1.808-7.792 10.872-2.536 2.528-10.864 7.8 1.808-3.672 15.728zm100.371 75.886l-5.657 5.657-31.712-31.712 5.657-5.657z"></path>
      <path d="M422.554 388.656l-18.125 18.124-5.657-5.657L416.897 383zm.118 31.656l-7.8-1.808 3.672-15.72 15.72-3.672 1.816 7.792-10.88 2.536zm-51.658-35.429l-31.7 31.7-5.657-5.656 31.7-31.7z"></path>
      <path d="M367.48 400.837l-5.657 5.657L343.7 388.37l5.657-5.657zm-23.904 19.187l-2.528-10.872-10.88-2.536 1.816-7.792 15.72 3.672 3.672 15.712zm89.351-96.52l-31.712 31.712-5.657-5.657 31.712-31.712z"></path>
      <path d="M422.845 346.055l-5.657 5.657-18.124-18.124 5.656-5.657zm11.707-10.455l-15.72-3.664-3.672-15.728 7.8-1.808 2.528 10.88 10.88 2.528zm-117.296 27.44h44.84v8h-44.84z"></path>
      <path d="M340.328 354.16h8v25.632h-8zm-15.672 26.552l-6.8-4.216 5.904-9.488-5.904-9.488 6.8-4.216 8.52 13.704zm79.784-17.272h44.84v8h-44.84z"></path>
      <path d="M418.224 354.64h8v25.632h-8zm23.656 26.48l-8.52-13.704 8.52-13.704 6.8 4.216-5.896 9.488 5.896 9.48z"></path>
    </g>
    <path fill="#629fd6" d="M362.24 355.072v24.288l21.032 12.136 21.032-12.136v-24.288l-21.032-12.144z"></path>
  </symbol>
  <symbol xmlns="http://www.w3.org/2000/svg" viewBox="0 0 511.976 511.976" id="13n">
    <path d="M390.808 111.008h-6.336c-6.296-26.496-30.184-46.352-58.744-46.352-6.944 0-13.968 1.528-19.784 3.472C291.976 28.472 254.144 0 209.528 0c-56.48 0-102.264 45.552-102.264 101.752 0 3.544.192 7.032.536 10.48-37.12 6.392-65.608 38.704-65.608 77.392 0 43.24 35.552 78.632 79.008 78.632h269.576c43.456 0 79.008-35.376 79.008-78.632.032-43.224-35.52-78.616-78.976-78.616z"
      fill="#629fd6"></path>
    <g fill="#b5c0d6">
      <path d="M190.736 309.768h8v68.696h-8z"></path>
      <path d="M175.104 347.2h39.264v8h-39.264zm19.632-15.552l-19.872-12.36 4.224-6.792 15.648 9.728 15.656-9.728 4.216 6.792zm-4.624 111.632h8v68.696h-8z"></path>
      <path d="M174.488 466.56h39.256v8h-39.256zm35.28 42.712l-15.656-9.736-15.648 9.736-4.224-6.792 19.872-12.36 19.872 12.36zm-35.195-124.375l-5.656 5.657-48.582-48.567 5.656-5.657z"></path>
      <path d="M169.172 357.426l-27.758 27.758-5.657-5.657 27.758-27.758zm-53.348 2.526l-1.816-7.792 17.952-4.184 4.184-17.952 7.792 1.816-5.32 22.792zM268.528 479.78l-5.657 5.656-48.569-48.569 5.657-5.657z"></path>
      <path d="M253.114 442.202l-27.764 27.764-5.656-5.657 27.763-27.764zm-.402 49.534l-7.8-1.816 5.32-22.784 22.792-5.32 1.808 7.792-17.944 4.184zm-78.632-55.311L125.506 485l-5.657-5.657 48.574-48.574z"></path>
      <path d="M168.723 463.906l-5.657 5.656-27.763-27.763 5.657-5.657zm-33.027 27.39l-4.184-17.944-17.944-4.176 1.816-7.8 22.784 5.32 5.32 22.792zm133.279-148.864l-48.574 48.575-5.657-5.657 48.574-48.574z"></path>
      <path d="M253.557 379.947l-5.658 5.656-27.76-27.768 5.658-5.656zm19.915-19.555l-22.8-5.32-5.312-22.792 7.8-1.808 4.168 17.944 17.952 4.176zM93.304 406.568H162v8H93.304z"></path>
      <path d="M130.776 390.936h8V430.2h-8zm-27.952 39.512l-6.792-4.224 9.736-15.656-9.736-15.648 6.792-4.216 12.36 19.864zm124.024-23.256h68.688v8h-68.688z"></path>
      <path d="M250.064 391.56h8v39.264h-8zm35.952 39.504l-12.36-19.872 12.36-19.872 6.8 4.216-9.736 15.656 9.736 15.656z"></path>
    </g>
    <path fill="#629fd6" d="M162.208 392.28v37.208l32.216 18.6 32.216-18.6V392.28l-32.216-18.6z"></path>
    <g fill="#b5c0d6">
      <path d="M379.504 301.2h8v44.84h-8z"></path>
      <path d="M370.624 324.272h25.632v8h-25.632zm12.856-7.144l-13.712-8.528 4.216-6.792 9.496 5.896 9.48-5.896 4.216 6.792zm-4.376 71.256h8v44.84h-8z"></path>
      <path d="M370.224 402.16h25.632v8h-25.632zm3.352 30.464l-4.216-6.792 13.712-8.528 13.704 8.528-4.224 6.792-9.48-5.896zm-2.289-83.337l-5.657 5.656-31.712-31.712 5.657-5.657z"></path>
      <path d="M367.765 333.3l-18.124 18.123-5.657-5.656 18.125-18.125zm-35.493 2.012l-1.808-7.792 10.872-2.536 2.528-10.864 7.8 1.808-3.672 15.728zm100.371 75.886l-5.657 5.657-31.712-31.712 5.657-5.657z"></path>
      <path d="M422.554 388.656l-18.125 18.124-5.657-5.657L416.897 383zm.118 31.656l-7.8-1.808 3.672-15.72 15.72-3.672 1.816 7.792-10.88 2.536zm-51.658-35.429l-31.7 31.7-5.657-5.656 31.7-31.7z"></path>
      <path d="M367.48 400.837l-5.657 5.657L343.7 388.37l5.657-5.657zm-23.904 19.187l-2.528-10.872-10.88-2.536 1.816-7.792 15.72 3.672 3.672 15.712zm89.351-96.52l-31.712 31.712-5.657-5.657 31.712-31.712z"></path>
      <path d="M422.845 346.055l-5.657 5.657-18.124-18.124 5.656-5.657zm11.707-10.455l-15.72-3.664-3.672-15.728 7.8-1.808 2.528 10.88 10.88 2.528zm-117.296 27.44h44.84v8h-44.84z"></path>
      <path d="M340.328 354.16h8v25.632h-8zm-15.672 26.552l-6.8-4.216 5.904-9.488-5.904-9.488 6.8-4.216 8.52 13.704zm79.784-17.272h44.84v8h-44.84z"></path>
      <path d="M418.224 354.64h8v25.632h-8zm23.656 26.48l-8.52-13.704 8.52-13.704 6.8 4.216-5.896 9.488 5.896 9.48z"></path>
    </g>
    <path fill="#629fd6" d="M362.24 355.072v24.288l21.032 12.136 21.032-12.136v-24.288l-21.032-12.144z"></path>
  </symbol>
  <symbol xmlns="http://www.w3.org/2000/svg" viewBox="0 0 503.467 503.467" id="50d">
    <path d="M192 72.533c-51.2 0-102.4 12.8-102.4 51.2s-68.267 59.733-68.267 102.4S102.4 307.2 102.4 328.533s-38.4 12.8-38.4 51.2 59.733 51.2 85.333 51.2H345.6c34.134 0 59.733-21.333 59.733-51.2s-34.133-29.867-34.133-51.2 115.2-42.667 115.2-102.4c0-68.267-76.8-153.6-140.8-153.6H192z"
      fill="#ecf4f7"></path>
    <path d="M362.667 435.2H140.8c-2.56 0-4.267-1.707-4.267-4.267 0-2.56 1.707-4.267 4.267-4.267h221.867c2.56 0 4.267 1.707 4.267 4.267-.001 2.56-1.707 4.267-4.267 4.267zm51.2-51.2H243.2c-2.56 0-4.267-1.707-4.267-4.267 0-2.56 1.707-4.267 4.267-4.267h170.667c2.56 0 4.267 1.707 4.267 4.267-.001 2.56-1.707 4.267-4.267 4.267zm-204.8 0h-153.6c-2.56 0-4.267-1.707-4.267-4.267 0-2.56 1.707-4.267 4.267-4.267h153.6c2.56 0 4.267 1.707 4.267 4.267-.001 2.56-1.707 4.267-4.267 4.267zm170.666-51.2H192c-2.56 0-4.267-1.707-4.267-4.267 0-2.56 1.707-4.267 4.267-4.267h187.733c2.56 0 4.267 1.707 4.267 4.267 0 2.56-1.707 4.267-4.267 4.267zm-221.866 0H89.6c-2.56 0-4.267-1.707-4.267-4.267 0-2.56 1.707-4.267 4.267-4.267h68.267c2.56 0 4.267 1.707 4.267 4.267-.001 2.56-1.707 4.267-4.267 4.267zm307.2-51.2H277.333c-2.56 0-4.267-1.707-4.267-4.267s1.707-4.267 4.267-4.267h187.733c2.56 0 4.267 1.707 4.267 4.267s-1.706 4.267-4.266 4.267zm-221.867 0H55.467c-2.56 0-4.267-1.707-4.267-4.267s1.707-4.267 4.267-4.267H243.2c2.56 0 4.267 1.707 4.267 4.267s-1.707 4.267-4.267 4.267zm256-51.2H140.8c-2.56 0-4.267-1.707-4.267-4.267s1.707-4.267 4.267-4.267h358.4c2.56 0 4.267 1.707 4.267 4.267s-1.707 4.267-4.267 4.267zm-392.533 0H4.267c-2.56 0-4.267-1.707-4.267-4.267s1.707-4.267 4.267-4.267h102.4c2.56 0 4.267 1.707 4.267 4.267s-1.707 4.267-4.267 4.267zm307.2-51.2H345.6c-2.56 0-4.267-1.707-4.267-4.267 0-2.56 1.707-4.267 4.267-4.267h68.267c2.56 0 4.267 1.707 4.267 4.267-.001 2.56-1.707 4.267-4.267 4.267zm-102.4 0H38.4c-2.56 0-4.267-1.707-4.267-4.267 0-2.56 1.707-4.267 4.267-4.267h273.067c2.56 0 4.267 1.707 4.267 4.267-.001 2.56-1.707 4.267-4.267 4.267zM430.933 128H243.2c-2.56 0-4.267-1.707-4.267-4.267 0-2.56 1.707-4.267 4.267-4.267h187.733c2.56 0 4.267 1.707 4.267 4.267 0 2.56-1.707 4.267-4.267 4.267zm-221.866 0H89.6c-2.56 0-4.267-1.707-4.267-4.267 0-2.56 1.707-4.267 4.267-4.267h119.467c2.56 0 4.267 1.707 4.267 4.267-.001 2.56-1.707 4.267-4.267 4.267zM396.8 76.8H174.933c-2.56 0-4.267-1.707-4.267-4.267 0-2.56 1.707-4.267 4.267-4.267H396.8c2.56 0 4.267 1.707 4.267 4.267 0 2.56-1.707 4.267-4.267 4.267z"
      fill="#51565f"></path>
  </symbol>
  <symbol xmlns="http://www.w3.org/2000/svg" viewBox="0 0 503.467 503.467" id="50n">
    <path d="M192 72.533c-51.2 0-102.4 12.8-102.4 51.2s-68.267 59.733-68.267 102.4S102.4 307.2 102.4 328.533s-38.4 12.8-38.4 51.2 59.733 51.2 85.333 51.2H345.6c34.134 0 59.733-21.333 59.733-51.2s-34.133-29.867-34.133-51.2 115.2-42.667 115.2-102.4c0-68.267-76.8-153.6-140.8-153.6H192z"
      fill="#ecf4f7"></path>
    <path d="M362.667 435.2H140.8c-2.56 0-4.267-1.707-4.267-4.267 0-2.56 1.707-4.267 4.267-4.267h221.867c2.56 0 4.267 1.707 4.267 4.267-.001 2.56-1.707 4.267-4.267 4.267zm51.2-51.2H243.2c-2.56 0-4.267-1.707-4.267-4.267 0-2.56 1.707-4.267 4.267-4.267h170.667c2.56 0 4.267 1.707 4.267 4.267-.001 2.56-1.707 4.267-4.267 4.267zm-204.8 0h-153.6c-2.56 0-4.267-1.707-4.267-4.267 0-2.56 1.707-4.267 4.267-4.267h153.6c2.56 0 4.267 1.707 4.267 4.267-.001 2.56-1.707 4.267-4.267 4.267zm170.666-51.2H192c-2.56 0-4.267-1.707-4.267-4.267 0-2.56 1.707-4.267 4.267-4.267h187.733c2.56 0 4.267 1.707 4.267 4.267 0 2.56-1.707 4.267-4.267 4.267zm-221.866 0H89.6c-2.56 0-4.267-1.707-4.267-4.267 0-2.56 1.707-4.267 4.267-4.267h68.267c2.56 0 4.267 1.707 4.267 4.267-.001 2.56-1.707 4.267-4.267 4.267zm307.2-51.2H277.333c-2.56 0-4.267-1.707-4.267-4.267s1.707-4.267 4.267-4.267h187.733c2.56 0 4.267 1.707 4.267 4.267s-1.706 4.267-4.266 4.267zm-221.867 0H55.467c-2.56 0-4.267-1.707-4.267-4.267s1.707-4.267 4.267-4.267H243.2c2.56 0 4.267 1.707 4.267 4.267s-1.707 4.267-4.267 4.267zm256-51.2H140.8c-2.56 0-4.267-1.707-4.267-4.267s1.707-4.267 4.267-4.267h358.4c2.56 0 4.267 1.707 4.267 4.267s-1.707 4.267-4.267 4.267zm-392.533 0H4.267c-2.56 0-4.267-1.707-4.267-4.267s1.707-4.267 4.267-4.267h102.4c2.56 0 4.267 1.707 4.267 4.267s-1.707 4.267-4.267 4.267zm307.2-51.2H345.6c-2.56 0-4.267-1.707-4.267-4.267 0-2.56 1.707-4.267 4.267-4.267h68.267c2.56 0 4.267 1.707 4.267 4.267-.001 2.56-1.707 4.267-4.267 4.267zm-102.4 0H38.4c-2.56 0-4.267-1.707-4.267-4.267 0-2.56 1.707-4.267 4.267-4.267h273.067c2.56 0 4.267 1.707 4.267 4.267-.001 2.56-1.707 4.267-4.267 4.267zM430.933 128H243.2c-2.56 0-4.267-1.707-4.267-4.267 0-2.56 1.707-4.267 4.267-4.267h187.733c2.56 0 4.267 1.707 4.267 4.267 0 2.56-1.707 4.267-4.267 4.267zm-221.866 0H89.6c-2.56 0-4.267-1.707-4.267-4.267 0-2.56 1.707-4.267 4.267-4.267h119.467c2.56 0 4.267 1.707 4.267 4.267-.001 2.56-1.707 4.267-4.267 4.267zM396.8 76.8H174.933c-2.56 0-4.267-1.707-4.267-4.267 0-2.56 1.707-4.267 4.267-4.267H396.8c2.56 0 4.267 1.707 4.267 4.267 0 2.56-1.707 4.267-4.267 4.267z"
      fill="#51565f"></path>
  </symbol>
  <symbol xmlns="http://www.w3.org/2000/svg" viewBox="0 0 512 512" id="01d">
    <path d="M256 103.248c-84.368 0-152.752 68.384-152.752 152.752S171.632 408.752 256 408.752 408.752 340.368 408.752 256 340.368 103.248 256 103.248z" fill="#ffd07d"></path>
    <path d="M256 142.488c-62.696 0-113.512 50.816-113.512 113.512S193.304 369.512 256 369.512 369.512 318.696 369.512 256 318.696 142.488 256 142.488z" fill="#eab14b"></path>
    <path d="M444.976 234.24H512v32h-67.024zM240 0h32v67.024h-32zm0 444.976h32V512h-32zM448.357 86.317l-47.392 47.392-22.628-22.628L425.73 63.69zM133.688 400.942l-47.392 47.392-22.627-22.627 47.392-47.392zm314.667 24.783l-22.627 22.628-47.392-47.392 22.627-22.628zM133.686 111.057l-22.627 22.627-47.392-47.392 22.627-22.627zM0 234.24h67.024v32H0z"
      fill="#ffd07d"></path>
  </symbol>
  <symbol xmlns="http://www.w3.org/2000/svg" viewBox="0 0 495 495" id="01n">
    <path fill="#ffde55" d="M434.477 227.821l44.392-49.161-64.811-13.679-33.036-57.411v159.088l60.474 27.03z"></path>
    <path fill="#ffeb99" d="M347.986 164.981l-64.811 13.679 44.393 49.161-7.018 65.867 60.472-27.03V107.57z"></path>
    <path d="M288.544 458.73c-90.69-22.63-160.01-108.71-160.01-211.23s69.32-188.6 160.01-211.23c30.19-7.54 59.89-8.18 87.48-3.08C339.614 12.12 297.374 0 252.284 0c-136.7 0-247.5 110.81-247.5 247.5s110.8 247.5 247.5 247.5c45.09 0 87.33-12.12 123.74-33.19-27.59 5.1-57.29 4.46-87.48-3.08z"
      fill="#ffeb99"></path>
    <path d="M252.284 247.5c0-91.59 49.79-171.51 123.74-214.31-27.59-5.1-57.29-4.46-87.48 3.08-90.69 22.63-160.01 108.71-160.01 211.23s69.32 188.6 160.01 211.23c30.19 7.54 59.89 8.18 87.48 3.08-73.95-42.8-123.74-122.72-123.74-214.31zm237.932 95.079l-32.224-6.802-16.427-28.549.001 79.104 30.071 13.439-3.493-32.75z"
      fill="#ffde55"></path>
    <path fill="#ffeb99" d="M425.138 335.777l-32.224 6.802 22.073 24.443-3.489 32.749 30.068-13.439-.001-79.104z"></path>
  </symbol>
  <symbol xmlns="http://www.w3.org/2000/svg" viewBox="0 0 512 512" id="02d">
    <path d="M115.376 262.268l-58.888-29.92 58.888-29.928zm230.976 0l58.888-29.92-58.888-29.928zm-232.296-73.616l-31.48-58.064 65.472 8.784zm233.616 0l31.48-58.064-65.472 8.784zM241.48 111.02l49.872-43.304 5.6 65.808zm-21.232 0l-49.872-43.304-5.6 65.808zM114.056 277.98l-31.48 58.064 65.472-8.784zm233.616 0l31.48 58.064-65.472-8.784zM241.48 355.604l49.872 43.312 5.6-65.816zm-21.232 0l-49.872 43.312-5.6-65.816zm9.592-222.08c-55.112 0-99.784 44.672-99.784 99.784s44.672 99.784 99.784 99.784 99.784-44.672 99.784-99.784-44.672-99.784-99.784-99.784z"
      fill="#ffd07d"></path>
    <path d="M462.104 257.004h-4c-3.984-16.744-19.072-29.288-37.112-29.288-4.384 0-8.824.968-12.504 2.192-8.824-25.048-32.728-43.04-60.912-43.04-35.688 0-64.616 28.784-64.616 64.288 0 2.24.12 4.44.336 6.624-23.456 4.04-41.456 24.456-41.456 48.896 0 27.32 22.464 49.68 49.92 49.68h170.32c27.456 0 49.92-22.352 49.92-49.68.024-27.312-22.44-49.672-49.896-49.672z"
      fill="#dfe6f4"></path>
    <path d="M285.992 315.276H280.8c-5.168-21.736-24.76-38.032-48.192-38.032-5.696 0-11.456 1.256-16.232 2.848-11.456-32.528-42.496-55.88-79.096-55.88-46.336 0-83.896 37.368-83.896 83.472 0 2.904.16 5.768.44 8.6C23.368 321.524 0 348.036 0 379.772c0 35.472 29.168 64.512 64.816 64.512h221.152c35.648 0 64.816-29.024 64.816-64.512.024-35.464-29.144-64.496-64.792-64.496z"
      fill="#629fd6"></path>
  </symbol>
  <symbol xmlns="http://www.w3.org/2000/svg" viewBox="0 0 512 512" id="02n">
    <path d="M373.144 49.424a139.22 139.22 0 0 0-35.256 4.528c59.616 15.6 103.6 69.816 103.6 134.328s-43.984 118.728-103.6 134.328a139.173 139.173 0 0 0 35.256 4.528C449.84 327.128 512 264.968 512 188.28S449.84 49.424 373.144 49.424z" fill="#ffd07d"></path>
    <g fill="#dfe6f4">
      <path d="M345.48 120.368h13.856l4.352-14.256 4.352 14.256h13.856l-11.2 8.648 4.352 14.152-11.328-8.752-11.328 8.752 4.328-14.152-11.24-8.648z"></path>
      <path d="M363.704 134.416l11.328 8.752-4.352-14.152 11.208-8.648h-13.856l-4.352-14.256-4.352 14.256H345.48l11.224 8.648-4.328 14.152z"></path>
    </g>
    <g fill="#629fd6">
      <path d="M295.352 166.88h13.856l4.352-14.256 4.352 14.256h13.856l-11.2 8.648 4.352 14.152-11.328-8.752-11.328 8.752 4.328-14.152-11.24-8.648z"></path>
      <path d="M313.584 180.936l11.328 8.752-4.352-14.152 11.208-8.656h-13.856l-4.352-14.248-4.352 14.248h-13.856l11.232 8.656-4.328 14.152z"></path>
    </g>
    <g fill="#ffd07d">
      <path d="M348.536 194.912h22.92l7.2-23.584 7.2 23.584h22.92l-18.536 14.312 7.2 23.416-18.744-14.48-18.744 14.48 7.16-23.416-18.576-14.312z"></path>
      <path d="M378.696 218.16l18.736 14.48-7.2-23.416 18.536-14.312h-22.92l-7.2-23.576-7.192 23.576h-22.92l18.576 14.312-7.16 23.416z"></path>
    </g>
    <path d="M292.232 330.76h-5.312c-5.28-22.208-25.296-38.856-49.24-38.856-5.816 0-11.712 1.28-16.584 2.912-11.712-33.232-43.424-57.104-80.816-57.104-47.344 0-85.728 38.184-85.728 85.296 0 2.968.168 5.896.448 8.784-31.12 5.352-55 32.44-55 64.872 0 36.248 29.8 65.912 66.232 65.912H292.2c36.424 0 66.232-29.656 66.232-65.912.024-36.232-29.776-65.904-66.2-65.904z"
      fill="#629fd6"></path>
  </symbol>
  <symbol xmlns="http://www.w3.org/2000/svg" viewBox="0 0 476.127 476.127" id="03d">
    <path d="M201.254 78.052c-55.463 13.693-99.559 57.644-112.534 114.336C38.476 200.564 0 244.263 0 296.779c0 58.318 47.445 105.763 105.763 105.763h132.3V73.585a153.408 153.408 0 0 0-36.809 4.467z" fill="#bddbff"></path>
    <path d="M460.67 241.789c-15.77-25.801-42.276-44.359-73.263-49.401-15.739-68.772-77.271-118.804-149.343-118.804v328.958h132.3c58.318 0 105.763-47.445 105.763-105.763 0-20.127-5.657-38.956-15.457-54.99z" fill="#9bc9ff"></path>
  </symbol>
</svg>